# xmcd
#
# Track frame offsets:
#	150
#	11695
#	22905
#	36215
#	45392
#	56262
#	64880
#	78815
#	89070
#	98792
#	109527
#	120040
#	130815
#	142355
#	153742
#	164757
#	176265
#	190460
#	201767
#	211517
#	221560
#	235275
#	249335
#	262017
#	271947
#
# Disc length: 3791 seconds
#
# Revision: 0
# Processed by: cddbd v1.4PL0 Copyright (c) Steve Scherf et al.
# Submitted via: MusicWizard 6.0.1
#
DISCID=590ecd19
DTITLE=Various Artist - Country Classic Vol 4
DYEAR=1996
DGENRE=Country
TTITLE0=Patsy Cline - Walking After Midnight
TTITLE1=Tammy Wynette - Stand By Your Man
TTITLE2=Kenny Rogers - Shine On Ruby Mountain
TTITLE3=Frankie Lane - Rawhide
TTITLE4=Lynn Anderson - Heaven Is Just A Sin Away
TTITLE5=Billie Jo Spears - You´re My Man
TTITLE6=Willie Nelson - You Always Have Somenone
TTITLE7=Johnny Russel - Jambalaja
TTITLE8=Glen Campbell - Gentle On My Mind
TTITLE9=Ferlin Husky - Gone
TTITLE10=Tex Ritter - Have A Stayed Away
TTITLE11=Don Williams - Take My Hand For A While
TTITLE12=Charlie Pride - My Eyes Can Only See
TTITLE13=Kenny Rogers - Me And Bobby Mc Gee
TTITLE14=Pat Boone - Johnny Hill
TTITLE15=Guy Mitchell - Heartache By The Number
TTITLE16=George Jones - A Good Year For The Roses
TTITLE17=Frankie Lane - Love Is A Golden Ring
TTITLE18=Anne Murray - It´s All Over
TTITLE19=Patsy Cline - Three Cigarettes In An Astray
TTITLE20=Willie Nelson - Home Is Where
TTITLE21=Lynn Anderson - Twoo Doors Down
TTITLE22=Glen Campbell - By The Time I Get Phoenix
TTITLE23=Tammy Wynette - Womanhood
TTITLE24=Billie Jo Spears - Sunshine
EXTD=
EXTT0=
EXTT1=
EXTT2=
EXTT3=
EXTT4=
EXTT5=
EXTT6=
EXTT7=
EXTT8=
EXTT9=
EXTT10=
EXTT11=
EXTT12=
EXTT13=
EXTT14=
EXTT15=
EXTT16=
EXTT17=
EXTT18=
EXTT19=
EXTT20=
EXTT21=
EXTT22=
EXTT23=
EXTT24=
PLAYORDER=
